<?xml version="1.0" encoding="UTF-8" standalone="no"?>
<!-- Created with Inkscape (http://www.inkscape.org/) -->

<svg
   width="340.151mm"
   height="179.14mm"
   viewBox="0 0 340.151 179.14"
   version="1.1"
   id="svg1"
   xml:space="preserve"
   xmlns:inkscape="http://www.inkscape.org/namespaces/inkscape"
   xmlns:sodipodi="http://sodipodi.sourceforge.net/DTD/sodipodi-0.dtd"
   xmlns="http://www.w3.org/2000/svg"
   xmlns:svg="http://www.w3.org/2000/svg"><sodipodi:namedview
     id="namedview1"
     pagecolor="#ffffff"
     bordercolor="#000000"
     borderopacity="0.25"
     inkscape:showpageshadow="2"
     inkscape:pageopacity="0.0"
     inkscape:pagecheckerboard="0"
     inkscape:deskcolor="#d1d1d1"
     inkscape:document-units="mm"
     inkscape:zoom="0.35945917"
     inkscape:cx="625.94035"
     inkscape:cy="471.54173"
     inkscape:window-width="1536"
     inkscape:window-height="889"
     inkscape:window-x="-8"
     inkscape:window-y="317"
     inkscape:window-maximized="1"
     inkscape:current-layer="text1"
     showgrid="true"><inkscape:grid
       id="grid6"
       units="mm"
       originx="0"
       originy="0"
       spacingx="0.99999998"
       spacingy="0.99999999"
       empcolor="#0099e5"
       empopacity="0.30196078"
       color="#0099e5"
       opacity="0.14901961"
       empspacing="5"
       enabled="true"
       visible="true" /></sodipodi:namedview><defs
     id="defs1" /><g
     inkscape:groupmode="layer"
     id="layer2"
     inkscape:label="Layer 2"
     transform="translate(-16.09118,-59.228916)"
     style="mix-blend-mode:normal"><path
       style="fill:#000000;fill-opacity:1;stroke:#000000;stroke-width:4.41952;stroke-linecap:round;stroke-linejoin:miter;stroke-miterlimit:12.2;stroke-dasharray:none;stroke-opacity:1;paint-order:normal"
       d="M 54.105253,97.327376 113.40823,79.679698 75.988871,155.36999 118.34809,142.76452 69.935789,212.50395 85.267,171.05319 38.671733,184.91923 76.091181,109.22892 42.203712,119.31336 Z"
       id="path1"
       sodipodi:nodetypes="cccccccccc" /></g><g
     inkscape:groupmode="layer"
     id="layer3"
     inkscape:label="Layer 1"
     transform="translate(-18.737015,-62.933085)"
     style="mix-blend-mode:normal"><g
       id="text1"
       style="font-size:63.5px;font-family:Montserrat;-inkscape-font-specification:'Montserrat, @wght=900';font-variation-settings:'wght' 900;text-align:center;text-anchor:middle;stroke-width:1.465"
       aria-label="ingPDF"
       transform="translate(30.162513,20.637507)"><path
         d="m 82.181332,140.6649 v -34.7345 h 14.351 v 34.7345 z m 7.1755,-37.5285 q -3.937,0 -6.2865,-2.0955 -2.3495,-2.095498 -2.3495,-5.206998 0,-3.1115 2.3495,-5.207 2.3495,-2.0955 6.2865,-2.0955 3.937,0 6.2865,1.9685 2.3495,1.9685 2.3495,5.08 0,3.302 -2.3495,5.460998 -2.3495,2.0955 -6.2865,2.0955 z"
         id="text36"
         style="text-anchor:start;stroke-width:5;stroke-linecap:round;stroke-miterlimit:12.2"
         aria-label="i" /><path
         d="m 102.88234,140.6649 v -34.7345 h 13.6525 v 10.16 l -2.7305,-2.921 q 2.032,-3.937 5.461,-5.9055 3.4925,-1.9685 7.747,-1.9685 4.0005,0 7.239,1.651 3.2385,1.5875 5.08,5.0165 1.905,3.429 1.905,8.89 v 19.812 h -14.351 v -17.3355 q 0,-3.2385 -1.143,-4.572 -1.143,-1.397 -3.1115,-1.397 -1.4605,0 -2.7305,0.6985 -1.2065,0.635 -1.9685,2.159 -0.6985,1.524 -0.6985,4.1275 v 16.3195 z"
         id="text35"
         style="text-anchor:start;stroke-width:5;stroke-linecap:round;stroke-miterlimit:12.2"
         aria-label="n" /><path
         d="m 165.74734,153.6189 q -5.1435,0 -9.652,-1.0795 -4.5085,-1.0795 -7.747,-3.2385 l 4.826,-9.779 q 2.032,1.5875 5.1435,2.4765 3.175,0.9525 5.969,0.9525 4.445,0 6.35,-1.905 1.905,-1.8415 1.905,-5.334 v -2.921 l 0.635,-10.795 0.0635,-10.795 v -5.2705 h 13.6525 v 27.813 q 0,10.0965 -5.588,14.986 -5.588,4.8895 -15.5575,4.8895 z m -2.794,-14.859 q -4.3815,0 -8.1915,-2.032 -3.81,-2.0955 -6.1595,-5.842 -2.3495,-3.7465 -2.3495,-8.89 0,-5.1435 2.3495,-8.89 2.3495,-3.7465 6.1595,-5.7785 3.81,-2.032 8.1915,-2.032 4.5085,0 7.366,1.778 2.921,1.778 4.318,5.5245 1.397,3.683 1.397,9.398 0,5.715 -1.397,9.4615 -1.397,3.683 -4.318,5.5245 -2.8575,1.778 -7.366,1.778 z m 3.81,-11.176 q 1.7145,0 3.048,-0.6985 1.3335,-0.6985 2.0955,-1.9685 0.762,-1.27 0.762,-2.921 0,-1.7145 -0.762,-2.921 -0.762,-1.27 -2.0955,-1.905 -1.3335,-0.6985 -3.048,-0.6985 -1.651,0 -3.048,0.6985 -1.3335,0.635 -2.159,1.905 -0.762,1.2065 -0.762,2.921 0,1.651 0.762,2.921 0.8255,1.27 2.159,1.9685 1.397,0.6985 3.048,0.6985 z"
         id="text34"
         style="text-anchor:start;stroke-width:5;stroke-linecap:round;stroke-miterlimit:12.2"
         aria-label="g" /><path
         d="m 216.42037,141.2999 q -4.5085,0 -7.493,-1.905 -2.921,-1.9685 -4.318,-5.9055 -1.397,-4.0005 -1.397,-10.16 0,-6.2865 1.27,-10.2235 1.3335,-4.0005 4.2545,-5.9055 2.921,-1.905 7.6835,-1.905 4.572,0 8.382,2.2225 3.81,2.159 6.096,6.223 2.286,4.0005 2.286,9.5885 0,5.588 -2.286,9.652 -2.286,4.0005 -6.096,6.1595 -3.81,2.159 -8.382,2.159 z m -23.1775,11.684 v -47.0535 h 13.6525 v 4.699 l 0.0635,12.7 0.635,12.7 v 16.9545 z m 19.7485,-22.86 q 1.5875,0 2.8575,-0.762 1.27,-0.762 2.032,-2.286 0.762,-1.524 0.762,-3.7465 0,-2.286 -0.762,-3.81 -0.762,-1.524 -2.032,-2.286 -1.27,-0.762 -2.8575,-0.762 -1.5875,0 -2.8575,0.762 -1.27,0.762 -2.032,2.286 -0.762,1.524 -0.762,3.81 0,2.2225 0.762,3.7465 0.762,1.524 2.032,2.286 1.27,0.762 2.8575,0.762 z"
         id="text33"
         style="text-anchor:start;stroke-width:5;stroke-linecap:round;stroke-miterlimit:12.2"
         aria-label="p" /><path
         d="m 252.93291,141.2999 q -4.5085,0 -8.382,-2.159 -3.81,-2.2225 -6.096,-6.223 -2.286,-4.064 -2.286,-9.652 0,-5.588 2.286,-9.5885 2.286,-4.064 6.096,-6.223 3.8735,-2.159 8.382,-2.159 4.572,0 7.493,1.9685 2.921,1.905 4.318,5.9055 1.397,3.937 1.397,10.0965 0,6.223 -1.3335,10.2235 -1.27,4.0005 -4.191,5.9055 -2.8575,1.905 -7.6835,1.905 z m 3.429,-11.176 q 1.5875,0 2.8575,-0.762 1.27,-0.762 2.032,-2.286 0.762,-1.5875 0.762,-3.81 0,-2.286 -0.762,-3.7465 -0.762,-1.524 -2.032,-2.286 -1.27,-0.762 -2.8575,-0.762 -1.5875,0 -2.8575,0.762 -1.27,0.762 -2.032,2.286 -0.762,1.4605 -0.762,3.7465 0,2.2225 0.762,3.81 0.762,1.524 2.032,2.286 1.27,0.762 2.8575,0.762 z m 6.096,10.541 v -4.699 l -0.0635,-12.7 -0.635,-12.7 V 93.547902 h 14.351 V 140.6649 Z"
         id="text32"
         style="text-anchor:start;stroke-width:5;stroke-linecap:round;stroke-miterlimit:12.2"
         aria-label="d" /><path
         d="m 284.0479,140.6649 v -33.02 q 0,-6.731 4.0005,-10.731498 4.064,-4.0005 11.4935,-4.0005 2.286,0 4.572,0.4445 2.3495,0.381 3.937,1.27 l -3.429,9.969498 q -0.6985,-0.3175 -1.524,-0.5715 -0.8255,-0.254 -1.7145,-0.254 -1.524,0 -2.4765,0.9525 -0.9525,0.9525 -0.9525,3.048 v 1.651 l 0.4445,5.9055 v 25.3365 z m -4.7625,-22.352 v -10.4775 h 26.2255 v 10.4775 z"
         id="text31"
         style="text-anchor:start;stroke-width:5;stroke-linecap:round;stroke-miterlimit:12.2"
         aria-label="f" /></g></g></svg>
